<?xml version="1.0" encoding="utf-8"?>
<!-- Generator: Adobe Illustrator 19.0.0, SVG Export Plug-In . SVG Version: 6.00 Build 0)  -->
<svg version="1.1" id="Layer_1" xmlns="http://www.w3.org/2000/svg" xmlns:xlink="http://www.w3.org/1999/xlink" x="0px" y="0px"
	 viewBox="0 0 18.7 16" style="enable-background:new 0 0 18.7 16;" xml:space="preserve">
<style type="text/css">
	.st0{fill-rule:evenodd;clip-rule:evenodd;fill:#ffffff;}
</style>
<path class="st0" d="M7.8,1.3L7.8,1.3c3,0,5.5,2.5,5.5,5.5v0.8c-0.6,0-1.6,0.4-2.2,1V6.9c0-1.8-1.5-3.3-3.3-3.3l0,0
	C6,3.6,4.5,5.1,4.5,6.9v1.9c0,1.8,1.5,3.3,3.3,3.3l0,0c1.5,0,2.6-0.7,3-1.9c0.4-1.3,1.9-2.3,3.3-1.9c1.8,0.7,2.8,2.3,1.5,4.2
	c0.5,0,1,0,1.5,0c-0.3,0.6-0.6,1.1-0.9,1.7c-1.5,0-3,0-4.4,0c0.6-0.7,1.3-1.3,1.9-2c1.3-1.8-0.5-1.8-0.7-1.3
	c-0.8,2.1-2.8,3.6-5.2,3.6l0,0c-3,0-5.5-2.5-5.5-5.5V6.8C2.3,3.8,4.8,1.3,7.8,1.3z"/>
</svg>
