<?xml version="1.0" encoding="utf-8"?>
<!-- Generator: Adobe Illustrator 19.0.0, SVG Export Plug-In . SVG Version: 6.00 Build 0)  -->
<svg version="1.1" id="Layer_1" xmlns="http://www.w3.org/2000/svg" xmlns:xlink="http://www.w3.org/1999/xlink" x="0px" y="0px"
	 viewBox="0 0 52 64" style="enable-background:new 0 0 52 64;" xml:space="preserve">
<style type="text/css">
	.st0{fill:none;stroke:#ECECED;stroke-width:1.0001;stroke-linejoin:round;stroke-miterlimit:22.9256;}
	.st1{fill-rule:evenodd;clip-rule:evenodd;fill:url(#SVGID_1_);}
	
		.st2{fill-rule:evenodd;clip-rule:evenodd;fill:none;stroke:#ECECED;stroke-width:1.0001;stroke-linejoin:round;stroke-miterlimit:22.9256;}
	.st3{fill-rule:evenodd;clip-rule:evenodd;fill:url(#SVGID_2_);}
</style>
<g>
	<polygon class="st0" points="26.7,49.4 30.4,55.2 23.1,55.2 	"/>
	<linearGradient id="SVGID_1_" gradientUnits="userSpaceOnUse" x1="26.7179" y1="49.3883" x2="26.7179" y2="55.1903">
		<stop  offset="0" style="stop-color:#008BD2"/>
		<stop  offset="0.29" style="stop-color:#009EE3"/>
		<stop  offset="1" style="stop-color:#FFFFFF"/>
	</linearGradient>
	<path class="st1" d="M26.7,49.4l3.6,5.8h-7.3L26.7,49.4z"/>
</g>
<g>
	<path class="st2" d="M26.7,52C38.4,52,48,42.4,48,30.7S38.4,9.4,26.7,9.4C15,9.4,5.5,19,5.5,30.7S15,52,26.7,52z"/>
	<linearGradient id="SVGID_2_" gradientUnits="userSpaceOnUse" x1="26.7181" y1="60.81" x2="26.7181" y2="0.5789">
		<stop  offset="0" style="stop-color:#008BD2"/>
		<stop  offset="0.29" style="stop-color:#009EE3"/>
		<stop  offset="1" style="stop-color:#FFFFFF"/>
	</linearGradient>
	<path class="st3" d="M26.7,52C38.4,52,48,42.4,48,30.7S38.4,9.4,26.7,9.4C15,9.4,5.5,19,5.5,30.7S15,52,26.7,52z"/>
</g>
</svg>
