<?xml version="1.0" encoding="utf-8"?>
<!-- Generator: Adobe Illustrator 19.0.0, SVG Export Plug-In . SVG Version: 6.00 Build 0)  -->
<svg version="1.1" id="Layer_1" xmlns="http://www.w3.org/2000/svg" xmlns:xlink="http://www.w3.org/1999/xlink" x="0px" y="0px"
	 viewBox="0 0 52 62.7" style="enable-background:new 0 0 52 62.7;" xml:space="preserve">
<style type="text/css">
	.st0{fill:none;stroke:#ECECED;stroke-width:1.0001;stroke-linejoin:round;stroke-miterlimit:22.9256;}
	.st1{fill-rule:evenodd;clip-rule:evenodd;fill:url(#SVGID_1_);}
	.st2{fill-rule:evenodd;clip-rule:evenodd;fill:#6F6F6E;}
	
		.st3{fill-rule:evenodd;clip-rule:evenodd;fill:none;stroke:#ECECED;stroke-width:1.0001;stroke-linejoin:round;stroke-miterlimit:22.9256;}
	.st4{fill-rule:evenodd;clip-rule:evenodd;fill:url(#SVGID_2_);}
</style>
<rect x="26.4" y="47" class="st2" width="0.7" height="13"/>
<g>
	<polygon class="st0" points="26.7,43.1 30.4,48.9 23.1,48.9 	"/>
	<linearGradient id="SVGID_1_" gradientUnits="userSpaceOnUse" x1="26.7179" y1="43.055" x2="26.7179" y2="48.857">
		<stop  offset="0" style="stop-color:#008BD2"/>
		<stop  offset="0.29" style="stop-color:#009EE3"/>
		<stop  offset="1" style="stop-color:#FFFFFF"/>
	</linearGradient>
	<path class="st1" d="M26.7,43.1l3.6,5.8h-7.3L26.7,43.1z"/>
</g>
<g>
	<path class="st3" d="M26.7,45.6c11.7,0,21.3-9.6,21.3-21.3S38.4,3.1,26.7,3.1C15,3.1,5.5,12.7,5.5,24.4S15,45.6,26.7,45.6z"/>
	<linearGradient id="SVGID_2_" gradientUnits="userSpaceOnUse" x1="26.7181" y1="54.4767" x2="26.7181" y2="-5.7545">
		<stop  offset="0" style="stop-color:#008BD2"/>
		<stop  offset="0.29" style="stop-color:#009EE3"/>
		<stop  offset="1" style="stop-color:#FFFFFF"/>
	</linearGradient>
	<path class="st4" d="M26.7,45.6c11.7,0,21.3-9.6,21.3-21.3S38.4,3.1,26.7,3.1C15,3.1,5.5,12.7,5.5,24.4S15,45.6,26.7,45.6z"/>
</g>
</svg>
